# xmcd
#
# Track frame offsets:
#	150
#	15637
#	30986
#	44989
#	54456
#	65875
#	80903
#	105176
#	117668
#	131044
#	142320
#	163272
#	176856
#	191907
#
# Disc length: 2976 seconds
#
# Revision: 0
# Processed by: cddbd v1.5.2PL0 Copyright (c) Steve Scherf et al.
# Submitted via: EasyCDDAExtractor 11.0.2.1
#
DISCID=de0b9e0e
DTITLE=Interstate Cowboy - Ranch Dance Ruckus
DYEAR=2002
DGENRE=country
TTITLE0=Bride Of A Trucker
TTITLE1=Right Away
TTITLE2=Ranch Dance Ruckus
TTITLE3=Draggin' the Bow
TTITLE4=It's Not An If
TTITLE5=Dashboard Hula Doll
TTITLE6=Million Miles
TTITLE7=Redwing
TTITLE8=Big Dream
TTITLE9=Baby Knows How
TTITLE10=House We Built
TTITLE11=Don't Need To Write It Down
TTITLE12=Lover's Waltz
TTITLE13=I Want To Be A Fireman
EXTD=
EXTT0=
EXTT1=
EXTT2=
EXTT3=
EXTT4=
EXTT5=
EXTT6=
EXTT7=
EXTT8=
EXTT9=
EXTT10=
EXTT11=
EXTT12=
EXTT13=
PLAYORDER=
